Coordinates
version=1
nRows=8
nColumns=36
inDegrees=yes

Units are S.I. units (second, meters, Newtons, ...)
If the header above contains a line with 'inDegrees', this indicates whether rotational values are in degrees (yes) or radians (no).

endheader
time	pelvis_tilt	pelvis_list	pelvis_rotation	pelvis_tx	pelvis_ty	pelvis_tz	hip_flexion_r	hip_adduction_r	hip_rotation_r	knee_angle_r	knee_angle_r_beta	ankle_angle_r	subtalar_angle_r	mtp_angle_r	hip_flexion_l	hip_adduction_l	hip_rotation_l	knee_angle_l	knee_angle_l_beta	ankle_angle_l	subtalar_angle_l	mtp_angle_l	lumbar_extension	lumbar_bending	lumbar_rotation	arm_flex_r	arm_add_r	arm_rot_r	elbow_flex_r	pro_sup_r	arm_flex_l	arm_add_l	arm_rot_l	elbow_flex_l	pro_sup_l
      2.57500000	    -20.91575091	      1.73560118	     -0.17579518	      0.24282397	      0.78787757	     -0.08097540	     67.13589193	     -8.03782729	     -2.84129386	     71.38729300	      1.24594331	     11.78439501	    -33.13563926	     -7.49999987	     61.83947569	     -3.53700867	      4.24033983	     69.72470469	      1.21692567	     13.48919624	    -25.35002145	     -7.49999987	    -24.05995039	      2.62220073	      4.04984840	    109.62140131	     -8.52289825	     32.74215273	    101.88600358	     87.84485750	     96.57104859	    -22.92539883	     24.64715459	    111.02083984	     81.22201509
      2.57916670	    -20.23817664	      1.44971054	     -0.00719038	      0.24495305	      0.79197244	     -0.07973065	     65.85810932	     -8.14472815	     -3.28732129	     70.93928046	      1.23812401	     10.69471971	    -33.44530592	     -7.49999987	     60.65947512	     -3.74871611	      4.28006926	     69.18738499	      1.20754767	     13.29280409	    -24.88326364	     -7.49999987	    -23.97362766	      2.76741160	      3.74023807	    111.76709163	     -8.86400245	     33.85563748	    102.51718531	     86.01289281	     99.27413842	    -23.91952627	     27.36347499	    111.40002005	     80.39893508
      2.58333330	    -19.93430783	      1.50902591	      0.15323315	      0.24720177	      0.79646304	     -0.08065932	     65.15223700	     -8.48080624	     -3.57669558	     70.63028924	      1.23273110	     10.24184910	    -33.36139976	     -7.49999987	     59.72018573	     -3.62647617	      4.18979661	     68.40303541	      1.19385819	     12.82313987	    -24.99201579	     -7.49999987	    -23.27284138	      2.35059984	      3.54059455	    112.79514584	     -9.54970616	     33.20628677	    102.56484255	     88.82397160	    102.09898597	    -23.36235003	     29.58066025	    110.25226420	     83.08739536
      2.58750000	    -19.85326969	      1.34866858	      0.21180558	      0.24946543	      0.79882926	     -0.07931661	     64.53592834	     -8.50082811	     -3.94667976	     70.10776611	      1.22361135	      9.99200001	    -33.33298073	     -7.49999987	     59.22233694	     -3.88004045	      4.10335277	     67.86768671	      1.18451459	     12.75698946	    -24.75464391	     -7.49999987	    -22.34093688	      2.46289670	      3.55857779	    114.35255673	     -9.91130347	     33.47105495	    102.28291767	     92.95903816	    103.87262619	    -23.30158214	     30.35323596	    109.96695084	     87.06373589
      2.59166670	    -19.94239848	      1.34370055	      0.23798414	      0.25381614	      0.80049965	     -0.08035459	     64.33517148	     -8.72879033	     -4.30273063	     69.87627432	      1.21957106	      9.51688365	    -33.40407576	     -7.49999987	     58.95162582	     -3.98263847	      3.98818319	     67.47522669	      1.17766487	     12.52615481	    -24.72170763	     -7.49999987	    -21.23115567	      2.39492581	      3.52610086	    116.18324833	    -10.11566905	     33.70573566	    101.79894717	     92.98835979	    105.60419451	    -23.54289120	     31.11252318	    110.10677008	     87.16852433
      2.59583330	    -19.88643069	      1.30260194	      0.17914438	      0.25697738	      0.80703750	     -0.07745092	     63.66501778	     -8.70418718	     -4.64240085	     69.15174899	      1.20692570	      8.75534281	    -33.40074587	     -7.49999987	     58.19491207	     -4.22430192	      3.82722395	     66.46446460	      1.16002374	     11.96938849	    -24.41529164	     -7.49999987	    -20.27742673	      2.13653227	      3.46974944	    117.33995178	    -10.48587422	     33.67435060	    101.98849459	     92.94064920	    107.15676339	    -24.66042944	     32.22835589	    110.96276214	     87.31316555
      2.60000000	    -19.79880475	      1.34388729	      0.23864024	      0.26079758	      0.81020804	     -0.07928616	     63.09652881	     -8.96700501	     -4.99318755	     68.73498863	      1.19965186	      7.80482361	    -33.40959722	     -7.49999987	     57.54891225	     -4.25777347	      3.51418195	     65.82340155	      1.14883508	     11.55521121	    -24.08359909	     -7.49999987	    -19.24782946	      2.08345865	      3.07140569	    118.23682630	    -10.44678942	     33.23820203	    101.35919763	     93.03083913	    108.52916743	    -25.43128190	     33.02797136	    111.46124925	     87.63768664
      2.60416670	    -19.57670965	      1.30094380	      0.05879422	      0.26265677	      0.81382930	     -0.07798957	     62.42123144	     -8.90503713	     -5.25735415	     68.15482957	      1.18952618	      6.73553076	    -33.55679625	     -7.49999987	     56.69072285	     -4.62196384	      3.11390030	     65.12815990	      1.13670083	     11.70704310	    -22.94223029	     -7.49999987	    -18.61753979	      1.84602815	      3.03481494	    119.83361980	    -10.73336153	     33.21919219	    100.68399922	     88.97561594	    110.42675615	    -25.32693012	     33.71576083	    111.45796638	     84.75003960
